<?xml version="1.0" encoding="UTF-8" standalone="no"?>
<!-- Created with Inkscape (http://www.inkscape.org/) -->

<svg
   xmlns:dc="http://purl.org/dc/elements/1.1/"
   xmlns:cc="http://creativecommons.org/ns#"
   xmlns:rdf="http://www.w3.org/1999/02/22-rdf-syntax-ns#"
   xmlns:svg="http://www.w3.org/2000/svg"
   xmlns="http://www.w3.org/2000/svg"
   xmlns:sodipodi="http://sodipodi.sourceforge.net/DTD/sodipodi-0.dtd"
   xmlns:inkscape="http://www.inkscape.org/namespaces/inkscape"
   id="svg2"
   version="1.1"
   inkscape:version="0.48.5 r10040"
   width="920"
   height="920"
   sodipodi:docname="fody_logo_white.svg"
   inkscape:export-xdpi="22.110001"
   inkscape:export-ydpi="22.110001">
  <metadata
     id="metadata8">
    <rdf:RDF>
      <cc:Work
         rdf:about="">
        <dc:format>image/svg+xml</dc:format>
        <dc:type
           rdf:resource="http://purl.org/dc/dcmitype/StillImage" />
        <dc:title></dc:title>
        <dc:creator>
          <cc:Agent>
            <dc:title>Marcel &quot;Howly&quot; Newman</dc:title>
          </cc:Agent>
        </dc:creator>
        <dc:rights>
          <cc:Agent>
            <dc:title>BSI</dc:title>
          </cc:Agent>
        </dc:rights>
        <dc:publisher>
          <cc:Agent>
            <dc:title>Intevation GmbH</dc:title>
          </cc:Agent>
        </dc:publisher>
        <dc:subject>
          <rdf:Bag>
            <rdf:li>IntelMQ Fody Logo</rdf:li>
          </rdf:Bag>
        </dc:subject>
        <cc:license
           rdf:resource="https://www.gnu.org/licenses/agpl.html" />
        <dc:description>GNU Affero GPL v&gt;=3</dc:description>
      </cc:Work>
    </rdf:RDF>
  </metadata>
  <defs
     id="defs6" />
  <sodipodi:namedview
     pagecolor="#3c8dbc"
     bordercolor="#666666"
     borderopacity="1"
     objecttolerance="10"
     gridtolerance="10"
     guidetolerance="10"
     inkscape:pageopacity="0"
     inkscape:pageshadow="2"
     inkscape:window-width="1680"
     inkscape:window-height="1003"
     id="namedview4"
     showgrid="false"
     inkscape:zoom="0.43455503"
     inkscape:cx="523.71729"
     inkscape:cy="411.31395"
     inkscape:window-x="-2"
     inkscape:window-y="-3"
     inkscape:window-maximized="1"
     inkscape:current-layer="layer4"
     showguides="true"
     inkscape:guide-bbox="true"
     inkscape:pagecheckerboard="false"
     fit-margin-top="10"
     fit-margin-left="10"
     fit-margin-right="10"
     fit-margin-bottom="10" />
  <g
     inkscape:groupmode="layer"
     id="layer1"
     inkscape:label="background"
     transform="translate(-40.782214,-40.000007)"
     style="opacity:0.3;display:inline"
     sodipodi:insensitive="true">
    <rect
       style="fill:#3c8dbc;fill-opacity:1;stroke:none"
       id="rect2992"
       width="1357.7109"
       height="1201.2288"
       x="-209.40962"
       y="-129.34932"
       transform="translate(40.782214,40.000068)"
       rx="0"
       ry="319.86743" />
  </g>
  <g
     inkscape:groupmode="layer"
     id="layer4"
     inkscape:label="dots"
     style="display:inline"
     transform="translate(-40.782214,-1519.9999)">
    <path
       style="color:#000000;fill:#ffffff;fill-opacity:1;stroke:none;stroke-width:30.88661194;marker:none;visibility:visible;display:inline;overflow:visible;enable-background:accumulate"
       d="M 500.06314,1530.0008 C 319.91495,1529.666 150.46513,1639.0969 82.349071,1817.7136 l -2.006795,5.2624 c -88.0692026,230.9388 27.253194,488.3873 258.220974,576.4676 l 2.58497,0.9849 c 230.96783,88.0802 488.43372,-27.2032 576.50292,-258.142 l 2.0068,-5.2623 c 88.06916,-230.9389 -27.25483,-488.3874 -258.22266,-576.4677 l -2.58497,-0.9849 c -52.32864,-19.9557 -106.0165,-29.4727 -158.78717,-29.5708 z m -56.94994,34.5391 a 60.325412,60.325412 0 0 0 37.90051,46.5882 60.325412,60.325412 0 0 0 4.60186,1.5194 l 1.00506,179.6047 a 60.325412,60.325412 0 0 0 -41.56618,36.9526 60.325412,60.325412 0 0 0 -1.81183,5.5733 c -46.8971,5.7794 -89.13849,26.8931 -121.62955,58.197 a 60.325412,60.325412 0 0 0 -77.68848,34.9273 60.325412,60.325412 0 0 0 -2.03369,6.5112 l -116.64282,-0.1127 a 60.325412,60.325412 0 0 0 -34.384419,-38.5324 c 4.457491,-20.7049 10.543709,-41.3518 18.336789,-61.7871 l 2.00679,-5.2624 C 167.5215,1681.0495 297.51407,1584.3264 443.1132,1564.5399 z m 118.66306,1.0689 c 28.82283,4.4414 57.65008,11.9851 86.06862,22.8227 l 2.58497,0.9848 c 172.35641,65.7287 275.33174,231.7804 267.60282,405.8666 a 60.325412,60.325412 0 0 0 -55.11625,38.6838 60.325412,60.325412 0 0 0 -0.0655,0.2033 l -144.49927,1.3463 a 60.325412,60.325412 0 0 0 -37.65512,-44.9041 60.325412,60.325412 0 0 0 -5.78844,-1.8757 c -17.08471,-59.3039 -58.82441,-108.1699 -113.2831,-134.4905 a 60.325412,60.325412 0 0 0 -38.70893,-59.9131 60.325412,60.325412 0 0 0 -7.33976,-2.2135 l -0.99836,-178.2652 a 60.325412,60.325412 0 0 0 44.29738,-37.5963 60.325412,60.325412 0 0 0 2.90094,-10.6491 z m -118.48657,300.9721 a 60.325412,60.325412 0 0 0 36.63492,40.4838 60.325412,60.325412 0 0 0 71.52692,-22.7925 c 42.33178,21.4855 75.18191,59.099 90.64693,104.9332 a 60.325412,60.325412 0 0 0 -39.2636,36.2769 60.325412,60.325412 0 0 0 34.87016,77.8616 60.325412,60.325412 0 0 0 5.417,1.7614 c -23.54588,74.1774 -92.34854,127.6567 -173.73729,127.6567 -0.27926,0 -0.55634,-0.01 -0.83533,-0.01 a 60.325412,60.325412 0 0 0 -38.73918,-57.8407 60.325412,60.325412 0 0 0 -70.2563,20.878 c -44.11425,-33.5417 -72.59923,-86.8466 -72.59923,-147.0557 0,-13.6503 1.47761,-26.9412 4.25562,-39.7324 a 60.325412,60.325412 0 0 0 65.44603,-38.1073 60.325412,60.325412 0 0 0 -9.28101,-59.0945 c 26.20624,-23.7636 59.2934,-39.9508 95.91436,-45.2185 z m -316.77602,96.6774 115.09656,0.1126 a 60.325412,60.325412 0 0 0 20.32677,32.4952 c -4.25172,16.9245 -6.51957,34.635 -6.51957,52.8675 0,73.562 36.7854,138.6649 92.8218,177.5879 a 60.325412,60.325412 0 0 0 22.44618,52.0136 l -17.17036,45.0235 a 60.325412,60.325412 0 0 0 -55.2776,23.6377 C 170.66363,2277.7177 91.405928,2148.9202 82.4163,2009.6162 a 60.325412,60.325412 0 0 0 41.3998,-36.8029 60.325412,60.325412 0 0 0 2.69757,-9.555 z m 732.95724,99.901 a 60.325412,60.325412 0 0 0 36.68871,47.9731 c -1.68897,4.9729 -3.47379,9.9361 -5.36154,14.8863 l -2.0068,5.2624 c -75.32139,197.5109 -282.4491,303.8842 -482.43401,256.9167 a 60.325412,60.325412 0 0 0 -25.7505,-54.612 l 16.43588,-43.1007 a 60.325412,60.325412 0 0 0 61.84255,-26.4481 c 3.47931,0.1702 6.97889,0.2623 10.49953,0.2623 98.7726,0 182.03287,-67.7466 206.59897,-159.4544 a 60.325412,60.325412 0 0 0 39.58293,-36.3711 60.325412,60.325412 0 0 0 1.29584,-3.985 z"
       id="rect4876-9-5"
       inkscape:connector-curvature="0" />
  </g>
</svg>
