<?xml version="1.0" encoding="UTF-8" standalone="no"?>
<!-- Created with Inkscape (http://www.inkscape.org/) -->

<svg
   xmlns:dc="http://purl.org/dc/elements/1.1/"
   xmlns:cc="http://creativecommons.org/ns#"
   xmlns:rdf="http://www.w3.org/1999/02/22-rdf-syntax-ns#"
   xmlns:svg="http://www.w3.org/2000/svg"
   xmlns="http://www.w3.org/2000/svg"
   xmlns:sodipodi="http://sodipodi.sourceforge.net/DTD/sodipodi-0.dtd"
   xmlns:inkscape="http://www.inkscape.org/namespaces/inkscape"
   width="1910"
   height="1913"
   id="svg3174"
   version="1.1"
   inkscape:version="0.48.5 r10040"
   sodipodi:docname="Neues Dokument 4">
  <defs
     id="defs3176" />
  <sodipodi:namedview
     id="base"
     pagecolor="#ffffff"
     bordercolor="#666666"
     borderopacity="1.0"
     inkscape:pageopacity="0.0"
     inkscape:pageshadow="2"
     inkscape:zoom="0.1767767"
     inkscape:cx="698.81401"
     inkscape:cy="835.01221"
     inkscape:document-units="px"
     inkscape:current-layer="layer1"
     showgrid="false"
     inkscape:window-width="836"
     inkscape:window-height="996"
     inkscape:window-x="840"
     inkscape:window-y="27"
     inkscape:window-maximized="0" />
  <metadata
     id="metadata3179">
    <rdf:RDF>
      <cc:Work
         rdf:about="">
        <dc:format>image/svg+xml</dc:format>
        <dc:type
           rdf:resource="http://purl.org/dc/dcmitype/StillImage" />
        <dc:title></dc:title>
      </cc:Work>
    </rdf:RDF>
  </metadata>
  <g
     inkscape:label="Ebene 1"
     inkscape:groupmode="layer"
     id="layer1"
     transform="translate(0,860.63783)">
    <g
       id="g3259"
       transform="translate(-0.90793503,-45.140651)">
      <rect
         ry="174.84785"
         rx="174.84785"
         y="-77.816719"
         x="742.00824"
         height="430.38184"
         width="428.96173"
         id="rect4876"
         style="color:#000000;fill:none;stroke:#013e56;stroke-width:32;stroke-linecap:square;stroke-linejoin:round;stroke-miterlimit:4;stroke-opacity:1;stroke-dasharray:none;stroke-dashoffset:0;marker:none;visibility:visible;display:inline;overflow:visible;enable-background:accumulate" />
      <path
         sodipodi:nodetypes="cc"
         inkscape:connector-curvature="0"
         id="path4844"
         d="m 403.317,97.146876 c 0,-230.787336 179.031,-513.477286 516.7739,-513.477286"
         style="fill:none;stroke:#00759e;stroke-width:32;stroke-linecap:butt;stroke-linejoin:miter;stroke-miterlimit:4;stroke-opacity:1;stroke-dasharray:none;display:inline" />
      <path
         sodipodi:nodetypes="cccscc"
         inkscape:connector-curvature="0"
         id="path4842"
         d="m 1509.3939,738.39029 c 0,-84.635 -74.25,-167.10274 -167.4173,-170.57434 l -217.51,0 c -27.4347,0 -69.461,-11.9216 -104.6289,-40.8953 -35.1679,-28.9736 -63.4772,-74.3455 -63.4772,-139.2843 -0.3617,-83.3781 -0.1553,-166.7709 -0.1553,-250.15337"
         style="fill:none;stroke:#ef3543;stroke-width:32;stroke-linecap:butt;stroke-linejoin:round;stroke-miterlimit:4;stroke-opacity:1;stroke-dasharray:none;display:inline" />
      <path
         sodipodi:nodetypes="cc"
         inkscape:connector-curvature="0"
         id="path4492-7-4"
         d="m 71.200263,137.05068 c 99.841897,0 214.879237,0 335.535037,0"
         style="fill:none;stroke:#3ba2db;stroke-width:32;stroke-linecap:butt;stroke-linejoin:miter;stroke-miterlimit:4;stroke-opacity:1;stroke-dasharray:none;display:inline" />
      <path
         sodipodi:nodetypes="cc"
         inkscape:connector-curvature="0"
         id="path4492-7"
         d="m 403.3801,137.05068 c 99.8419,0 214.8793,0 335.5351,0"
         style="fill:none;stroke:#00759e;stroke-width:32;stroke-linecap:butt;stroke-linejoin:miter;stroke-miterlimit:4;stroke-opacity:1;stroke-dasharray:none;display:inline" />
      <path
         sodipodi:nodetypes="cc"
         inkscape:connector-curvature="0"
         id="path4492-5"
         d="m 725.4938,137.05068 c 144.5481,0 297.732,0 442.9065,0"
         style="fill:none;stroke:#013e56;stroke-width:32;stroke-linecap:butt;stroke-linejoin:miter;stroke-miterlimit:4;stroke-opacity:1;stroke-dasharray:none;display:inline" />
      <path
         sodipodi:nodetypes="cc"
         inkscape:connector-curvature="0"
         id="path4492-2"
         d="m 1166.7226,140.28858 c 121.8291,0 238.0675,0 338.8905,0"
         style="fill:none;stroke:#00759e;stroke-width:32;stroke-linecap:butt;stroke-linejoin:miter;stroke-miterlimit:4;stroke-opacity:1;stroke-dasharray:none;display:inline" />
      <path
         sodipodi:nodetypes="cc"
         inkscape:connector-curvature="0"
         id="path4492-54"
         d="m 1502.2578,140.28858 344.7111,0"
         style="fill:none;stroke:#3ba2db;stroke-width:32;stroke-linecap:butt;stroke-linejoin:miter;stroke-miterlimit:4;stroke-opacity:1;stroke-dasharray:none;display:inline" />
      <path
         sodipodi:nodetypes="cc"
         inkscape:connector-curvature="0"
         id="path4494-4"
         d="m 956.1937,131.79298 0,-215.477874"
         style="fill:#ff0000;stroke:#013e56;stroke-width:32;stroke-linecap:butt;stroke-linejoin:miter;stroke-miterlimit:4;stroke-opacity:1;stroke-dasharray:none;display:inline" />
      <path
         sodipodi:nodetypes="cc"
         inkscape:connector-curvature="0"
         id="path4494-3"
         d="m 956.1937,-93.838624 0,-319.008226"
         style="fill:#ff0000;stroke:#00759e;stroke-width:32;stroke-linecap:butt;stroke-linejoin:miter;stroke-miterlimit:4;stroke-opacity:1;stroke-dasharray:none;display:inline" />
      <path
         sodipodi:nodetypes="cc"
         inkscape:connector-curvature="0"
         id="path4494-9"
         d="m 956.1937,-421.21538 0,-337.71114"
         style="fill:#ff0000;stroke:#3ba2db;stroke-width:32;stroke-linecap:butt;stroke-linejoin:miter;stroke-miterlimit:4;stroke-opacity:1;stroke-dasharray:none;display:inline" />
      <path
         sodipodi:nodetypes="cc"
         inkscape:connector-curvature="0"
         id="path4844-3"
         d="m 1508.3436,97.146876 c 0,-230.787336 -179.031,-513.477286 -516.7739,-513.477286"
         style="fill:none;stroke:#00759e;stroke-width:32;stroke-linecap:butt;stroke-linejoin:miter;stroke-miterlimit:4;stroke-opacity:1;stroke-dasharray:none;display:inline" />
      <path
         transform="matrix(0.95940739,0,0,0.95940739,-712.12474,-947.4685)"
         d="m 2373.693,1803.7494 c 0,31.9146 -25.8719,57.7865 -57.7865,57.7865 -31.9146,0 -57.7865,-25.8719 -57.7865,-57.7865 0,-31.9146 25.8719,-57.7865 57.7865,-57.7865 31.9146,0 57.7865,25.8719 57.7865,57.7865 z"
         sodipodi:ry="57.786533"
         sodipodi:rx="57.786533"
         sodipodi:cy="1803.7494"
         sodipodi:cx="2315.9065"
         id="path4348"
         style="color:#000000;fill:#ef3543;fill-opacity:1;fill-rule:nonzero;stroke:none;stroke-width:8;marker:none;visibility:visible;display:inline;overflow:visible;enable-background:accumulate"
         sodipodi:type="arc" />
      <path
         transform="matrix(1.2964824,0,0,1.2964824,-1474.2358,-1531.269)"
         d="m 2319.4073,1785.1545 c 0,9.9397 -8.0577,17.9975 -17.9974,17.9975 -9.9397,0 -17.9974,-8.0578 -17.9974,-17.9975 0,-9.9397 8.0577,-17.9974 17.9974,-17.9974 9.9397,0 17.9974,8.0577 17.9974,17.9974 z"
         sodipodi:ry="17.997429"
         sodipodi:rx="17.997429"
         sodipodi:cy="1785.1545"
         sodipodi:cx="2301.4099"
         id="path4352"
         style="color:#000000;fill:#ffffff;fill-opacity:1;fill-rule:nonzero;stroke:none;stroke-width:8;marker:none;visibility:visible;display:inline;overflow:visible;enable-background:accumulate"
         sodipodi:type="arc" />
      <path
         transform="matrix(0.95940739,0,0,0.95940739,-1265.5191,-1378.3202)"
         d="m 2373.693,1803.7494 c 0,31.9146 -25.8719,57.7865 -57.7865,57.7865 -31.9146,0 -57.7865,-25.8719 -57.7865,-57.7865 0,-31.9146 25.8719,-57.7865 57.7865,-57.7865 31.9146,0 57.7865,25.8719 57.7865,57.7865 z"
         sodipodi:ry="57.786533"
         sodipodi:rx="57.786533"
         sodipodi:cy="1803.7494"
         sodipodi:cx="2315.9065"
         id="path4348-0"
         style="color:#000000;fill:#ef3543;fill-opacity:1;fill-rule:nonzero;stroke:none;stroke-width:8;marker:none;visibility:visible;display:inline;overflow:visible;enable-background:accumulate"
         sodipodi:type="arc" />
      <path
         transform="matrix(1.2964824,0,0,1.2964824,-2027.6302,-1962.1207)"
         d="m 2319.4073,1785.1545 c 0,9.9397 -8.0577,17.9975 -17.9974,17.9975 -9.9397,0 -17.9974,-8.0578 -17.9974,-17.9975 0,-9.9397 8.0577,-17.9974 17.9974,-17.9974 9.9397,0 17.9974,8.0577 17.9974,17.9974 z"
         sodipodi:ry="17.997429"
         sodipodi:rx="17.997429"
         sodipodi:cy="1785.1545"
         sodipodi:cx="2301.4099"
         id="path4352-2"
         style="color:#000000;fill:#ffffff;fill-opacity:1;fill-rule:nonzero;stroke:none;stroke-width:8;marker:none;visibility:visible;display:inline;overflow:visible;enable-background:accumulate"
         sodipodi:type="arc" />
      <path
         transform="matrix(0.95940739,0,0,0.95940739,-1265.5191,-1593.4798)"
         d="m 2373.693,1803.7494 c 0,31.9146 -25.8719,57.7865 -57.7865,57.7865 -31.9146,0 -57.7865,-25.8719 -57.7865,-57.7865 0,-31.9146 25.8719,-57.7865 57.7865,-57.7865 31.9146,0 57.7865,25.8719 57.7865,57.7865 z"
         sodipodi:ry="57.786533"
         sodipodi:rx="57.786533"
         sodipodi:cy="1803.7494"
         sodipodi:cx="2315.9065"
         id="path4348-7"
         style="color:#000000;fill:#013e56;fill-opacity:1;fill-rule:nonzero;stroke:none;stroke-width:8;marker:none;visibility:visible;display:inline;overflow:visible;enable-background:accumulate"
         sodipodi:type="arc" />
      <path
         transform="matrix(1.2964824,0,0,1.2964824,-2027.6302,-2177.2804)"
         d="m 2319.4073,1785.1545 c 0,9.9397 -8.0577,17.9975 -17.9974,17.9975 -9.9397,0 -17.9974,-8.0578 -17.9974,-17.9975 0,-9.9397 8.0577,-17.9974 17.9974,-17.9974 9.9397,0 17.9974,8.0577 17.9974,17.9974 z"
         sodipodi:ry="17.997429"
         sodipodi:rx="17.997429"
         sodipodi:cy="1785.1545"
         sodipodi:cx="2301.4099"
         id="path4352-5"
         style="color:#000000;fill:#ffffff;fill-opacity:1;fill-rule:nonzero;stroke:none;stroke-width:8;marker:none;visibility:visible;display:inline;overflow:visible;enable-background:accumulate"
         sodipodi:type="arc" />
      <path
         transform="matrix(0.95940739,0,0,0.95940739,-1265.5191,-1808.2227)"
         d="m 2373.693,1803.7494 c 0,31.9146 -25.8719,57.7865 -57.7865,57.7865 -31.9146,0 -57.7865,-25.8719 -57.7865,-57.7865 0,-31.9146 25.8719,-57.7865 57.7865,-57.7865 31.9146,0 57.7865,25.8719 57.7865,57.7865 z"
         sodipodi:ry="57.786533"
         sodipodi:rx="57.786533"
         sodipodi:cy="1803.7494"
         sodipodi:cx="2315.9065"
         id="path4348-2"
         style="color:#000000;fill:#013e56;fill-opacity:1;fill-rule:nonzero;stroke:none;stroke-width:8;marker:none;visibility:visible;display:inline;overflow:visible;enable-background:accumulate"
         sodipodi:type="arc" />
      <path
         transform="matrix(1.2964824,0,0,1.2964824,-2027.6302,-2392.0233)"
         d="m 2319.4073,1785.1545 c 0,9.9397 -8.0577,17.9975 -17.9974,17.9975 -9.9397,0 -17.9974,-8.0578 -17.9974,-17.9975 0,-9.9397 8.0577,-17.9974 17.9974,-17.9974 9.9397,0 17.9974,8.0577 17.9974,17.9974 z"
         sodipodi:ry="17.997429"
         sodipodi:rx="17.997429"
         sodipodi:cy="1785.1545"
         sodipodi:cx="2301.4099"
         id="path4352-28"
         style="color:#000000;fill:#ffffff;fill-opacity:1;fill-rule:nonzero;stroke:none;stroke-width:8;marker:none;visibility:visible;display:inline;overflow:visible;enable-background:accumulate"
         sodipodi:type="arc" />
      <path
         transform="matrix(0.95940739,0,0,0.95940739,-1050.6799,-1593.4798)"
         d="m 2373.693,1803.7494 c 0,31.9146 -25.8719,57.7865 -57.7865,57.7865 -31.9146,0 -57.7865,-25.8719 -57.7865,-57.7865 0,-31.9146 25.8719,-57.7865 57.7865,-57.7865 31.9146,0 57.7865,25.8719 57.7865,57.7865 z"
         sodipodi:ry="57.786533"
         sodipodi:rx="57.786533"
         sodipodi:cy="1803.7494"
         sodipodi:cx="2315.9065"
         id="path4348-3"
         style="color:#000000;fill:#013e56;fill-opacity:1;fill-rule:nonzero;stroke:none;stroke-width:8;marker:none;visibility:visible;display:inline;overflow:visible;enable-background:accumulate"
         sodipodi:type="arc" />
      <path
         transform="matrix(1.2964824,0,0,1.2964824,-1812.7909,-2177.2804)"
         d="m 2319.4073,1785.1545 c 0,9.9397 -8.0577,17.9975 -17.9974,17.9975 -9.9397,0 -17.9974,-8.0578 -17.9974,-17.9975 0,-9.9397 8.0577,-17.9974 17.9974,-17.9974 9.9397,0 17.9974,8.0577 17.9974,17.9974 z"
         sodipodi:ry="17.997429"
         sodipodi:rx="17.997429"
         sodipodi:cy="1785.1545"
         sodipodi:cx="2301.4099"
         id="path4352-6"
         style="color:#000000;fill:#ffffff;fill-opacity:1;fill-rule:nonzero;stroke:none;stroke-width:8;marker:none;visibility:visible;display:inline;overflow:visible;enable-background:accumulate"
         sodipodi:type="arc" />
      <path
         transform="matrix(0.95940739,0,0,0.95940739,-1481.0169,-1593.4798)"
         d="m 2373.693,1803.7494 c 0,31.9146 -25.8719,57.7865 -57.7865,57.7865 -31.9146,0 -57.7865,-25.8719 -57.7865,-57.7865 0,-31.9146 25.8719,-57.7865 57.7865,-57.7865 31.9146,0 57.7865,25.8719 57.7865,57.7865 z"
         sodipodi:ry="57.786533"
         sodipodi:rx="57.786533"
         sodipodi:cy="1803.7494"
         sodipodi:cx="2315.9065"
         id="path4348-29"
         style="color:#000000;fill:#013e56;fill-opacity:1;fill-rule:nonzero;stroke:none;stroke-width:8;marker:none;visibility:visible;display:inline;overflow:visible;enable-background:accumulate"
         sodipodi:type="arc" />
      <path
         transform="matrix(1.2964824,0,0,1.2964824,-2243.128,-2177.2804)"
         d="m 2319.4073,1785.1545 c 0,9.9397 -8.0577,17.9975 -17.9974,17.9975 -9.9397,0 -17.9974,-8.0578 -17.9974,-17.9975 0,-9.9397 8.0577,-17.9974 17.9974,-17.9974 9.9397,0 17.9974,8.0577 17.9974,17.9974 z"
         sodipodi:ry="17.997429"
         sodipodi:rx="17.997429"
         sodipodi:cy="1785.1545"
         sodipodi:cx="2301.4099"
         id="path4352-3"
         style="color:#000000;fill:#ffffff;fill-opacity:1;fill-rule:nonzero;stroke:none;stroke-width:8;marker:none;visibility:visible;display:inline;overflow:visible;enable-background:accumulate"
         sodipodi:type="arc" />
      <path
         transform="matrix(0.95940739,0,0,0.95940739,-1816.5666,-1593.4798)"
         d="m 2373.693,1803.7494 c 0,31.9146 -25.8719,57.7865 -57.7865,57.7865 -31.9146,0 -57.7865,-25.8719 -57.7865,-57.7865 0,-31.9146 25.8719,-57.7865 57.7865,-57.7865 31.9146,0 57.7865,25.8719 57.7865,57.7865 z"
         sodipodi:ry="57.786533"
         sodipodi:rx="57.786533"
         sodipodi:cy="1803.7494"
         sodipodi:cx="2315.9065"
         id="path4348-4"
         style="color:#000000;fill:#00759e;fill-opacity:1;fill-rule:nonzero;stroke:none;stroke-width:8;marker:none;visibility:visible;display:inline;overflow:visible;enable-background:accumulate"
         sodipodi:type="arc" />
      <path
         transform="matrix(1.2964824,0,0,1.2964824,-2578.6776,-2177.2804)"
         d="m 2319.4073,1785.1545 c 0,9.9397 -8.0577,17.9975 -17.9974,17.9975 -9.9397,0 -17.9974,-8.0578 -17.9974,-17.9975 0,-9.9397 8.0577,-17.9974 17.9974,-17.9974 9.9397,0 17.9974,8.0577 17.9974,17.9974 z"
         sodipodi:ry="17.997429"
         sodipodi:rx="17.997429"
         sodipodi:cy="1785.1545"
         sodipodi:cx="2301.4099"
         id="path4352-7"
         style="color:#000000;fill:#ffffff;fill-opacity:1;fill-rule:nonzero;stroke:none;stroke-width:8;marker:none;visibility:visible;display:inline;overflow:visible;enable-background:accumulate"
         sodipodi:type="arc" />
      <path
         transform="matrix(0.95940739,0,0,0.95940739,-1265.5192,-2144.3655)"
         d="m 2373.693,1803.7494 c 0,31.9146 -25.8719,57.7865 -57.7865,57.7865 -31.9146,0 -57.7865,-25.8719 -57.7865,-57.7865 0,-31.9146 25.8719,-57.7865 57.7865,-57.7865 31.9146,0 57.7865,25.8719 57.7865,57.7865 z"
         sodipodi:ry="57.786533"
         sodipodi:rx="57.786533"
         sodipodi:cy="1803.7494"
         sodipodi:cx="2315.9065"
         id="path4348-45"
         style="color:#000000;fill:#00759e;fill-opacity:1;fill-rule:nonzero;stroke:none;stroke-width:8;marker:none;visibility:visible;display:inline;overflow:visible;enable-background:accumulate"
         sodipodi:type="arc" />
      <path
         transform="matrix(1.2964824,0,0,1.2964824,-2027.6302,-2728.1661)"
         d="m 2319.4073,1785.1545 c 0,9.9397 -8.0577,17.9975 -17.9974,17.9975 -9.9397,0 -17.9974,-8.0578 -17.9974,-17.9975 0,-9.9397 8.0577,-17.9974 17.9974,-17.9974 9.9397,0 17.9974,8.0577 17.9974,17.9974 z"
         sodipodi:ry="17.997429"
         sodipodi:rx="17.997429"
         sodipodi:cy="1785.1545"
         sodipodi:cx="2301.4099"
         id="path4352-0"
         style="color:#000000;fill:#ffffff;fill-opacity:1;fill-rule:nonzero;stroke:none;stroke-width:8;marker:none;visibility:visible;display:inline;overflow:visible;enable-background:accumulate"
         sodipodi:type="arc" />
      <path
         transform="matrix(0.95940739,0,0,0.95940739,-714.38904,-1590.2418)"
         d="m 2373.693,1803.7494 c 0,31.9146 -25.8719,57.7865 -57.7865,57.7865 -31.9146,0 -57.7865,-25.8719 -57.7865,-57.7865 0,-31.9146 25.8719,-57.7865 57.7865,-57.7865 31.9146,0 57.7865,25.8719 57.7865,57.7865 z"
         sodipodi:ry="57.786533"
         sodipodi:rx="57.786533"
         sodipodi:cy="1803.7494"
         sodipodi:cx="2315.9065"
         id="path4348-1"
         style="color:#000000;fill:#00759e;fill-opacity:1;fill-rule:nonzero;stroke:none;stroke-width:8;marker:none;visibility:visible;display:inline;overflow:visible;enable-background:accumulate"
         sodipodi:type="arc" />
      <path
         transform="matrix(1.2964824,0,0,1.2964824,-1476.5,-2174.0424)"
         d="m 2319.4073,1785.1545 c 0,9.9397 -8.0577,17.9975 -17.9974,17.9975 -9.9397,0 -17.9974,-8.0578 -17.9974,-17.9975 0,-9.9397 8.0577,-17.9974 17.9974,-17.9974 9.9397,0 17.9974,8.0577 17.9974,17.9974 z"
         sodipodi:ry="17.997429"
         sodipodi:rx="17.997429"
         sodipodi:cy="1785.1545"
         sodipodi:cx="2301.4099"
         id="path4352-06"
         style="color:#000000;fill:#ffffff;fill-opacity:1;fill-rule:nonzero;stroke:none;stroke-width:8;marker:none;visibility:visible;display:inline;overflow:visible;enable-background:accumulate"
         sodipodi:type="arc" />
      <path
         transform="matrix(0.95940739,0,0,0.95940739,-380.21454,-1590.2418)"
         d="m 2373.693,1803.7494 c 0,31.9146 -25.8719,57.7865 -57.7865,57.7865 -31.9146,0 -57.7865,-25.8719 -57.7865,-57.7865 0,-31.9146 25.8719,-57.7865 57.7865,-57.7865 31.9146,0 57.7865,25.8719 57.7865,57.7865 z"
         sodipodi:ry="57.786533"
         sodipodi:rx="57.786533"
         sodipodi:cy="1803.7494"
         sodipodi:cx="2315.9065"
         id="path4348-06"
         style="color:#000000;fill:#3ba2db;fill-opacity:1;fill-rule:nonzero;stroke:none;stroke-width:8;marker:none;visibility:visible;display:inline;overflow:visible;enable-background:accumulate"
         sodipodi:type="arc" />
      <path
         transform="matrix(1.2964824,0,0,1.2964824,-1142.3255,-2174.0424)"
         d="m 2319.4073,1785.1545 c 0,9.9397 -8.0577,17.9975 -17.9974,17.9975 -9.9397,0 -17.9974,-8.0578 -17.9974,-17.9975 0,-9.9397 8.0577,-17.9974 17.9974,-17.9974 9.9397,0 17.9974,8.0577 17.9974,17.9974 z"
         sodipodi:ry="17.997429"
         sodipodi:rx="17.997429"
         sodipodi:cy="1785.1545"
         sodipodi:cx="2301.4099"
         id="path4352-1"
         style="color:#000000;fill:#ffffff;fill-opacity:1;fill-rule:nonzero;stroke:none;stroke-width:8;marker:none;visibility:visible;display:inline;overflow:visible;enable-background:accumulate"
         sodipodi:type="arc" />
      <path
         transform="matrix(0.95940739,0,0,0.95940739,-1265.5191,-2480.3682)"
         d="m 2373.693,1803.7494 c 0,31.9146 -25.8719,57.7865 -57.7865,57.7865 -31.9146,0 -57.7865,-25.8719 -57.7865,-57.7865 0,-31.9146 25.8719,-57.7865 57.7865,-57.7865 31.9146,0 57.7865,25.8719 57.7865,57.7865 z"
         sodipodi:ry="57.786533"
         sodipodi:rx="57.786533"
         sodipodi:cy="1803.7494"
         sodipodi:cx="2315.9065"
         id="path4348-5"
         style="color:#000000;fill:#3ba2db;fill-opacity:1;fill-rule:nonzero;stroke:none;stroke-width:8;marker:none;visibility:visible;display:inline;overflow:visible;enable-background:accumulate"
         sodipodi:type="arc" />
      <path
         transform="matrix(1.2964824,0,0,1.2964824,-2027.6302,-3064.1688)"
         d="m 2319.4073,1785.1545 c 0,9.9397 -8.0577,17.9975 -17.9974,17.9975 -9.9397,0 -17.9974,-8.0578 -17.9974,-17.9975 0,-9.9397 8.0577,-17.9974 17.9974,-17.9974 9.9397,0 17.9974,8.0577 17.9974,17.9974 z"
         sodipodi:ry="17.997429"
         sodipodi:rx="17.997429"
         sodipodi:cy="1785.1545"
         sodipodi:cx="2301.4099"
         id="path4352-4"
         style="color:#000000;fill:#ffffff;fill-opacity:1;fill-rule:nonzero;stroke:none;stroke-width:8;marker:none;visibility:visible;display:inline;overflow:visible;enable-background:accumulate"
         sodipodi:type="arc" />
      <path
         transform="matrix(0.95940739,0,0,0.95940739,-2151.7652,-1593.4798)"
         d="m 2373.693,1803.7494 c 0,31.9146 -25.8719,57.7865 -57.7865,57.7865 -31.9146,0 -57.7865,-25.8719 -57.7865,-57.7865 0,-31.9146 25.8719,-57.7865 57.7865,-57.7865 31.9146,0 57.7865,25.8719 57.7865,57.7865 z"
         sodipodi:ry="57.786533"
         sodipodi:rx="57.786533"
         sodipodi:cy="1803.7494"
         sodipodi:cx="2315.9065"
         id="path4348-6"
         style="color:#000000;fill:#3ba2db;fill-opacity:1;fill-rule:nonzero;stroke:none;stroke-width:8;marker:none;visibility:visible;display:inline;overflow:visible;enable-background:accumulate"
         sodipodi:type="arc" />
      <path
         transform="matrix(1.2964824,0,0,1.2964824,-2913.8762,-2177.2804)"
         d="m 2319.4073,1785.1545 c 0,9.9397 -8.0577,17.9975 -17.9974,17.9975 -9.9397,0 -17.9974,-8.0578 -17.9974,-17.9975 0,-9.9397 8.0577,-17.9974 17.9974,-17.9974 9.9397,0 17.9974,8.0577 17.9974,17.9974 z"
         sodipodi:ry="17.997429"
         sodipodi:rx="17.997429"
         sodipodi:cy="1785.1545"
         sodipodi:cx="2301.4099"
         id="path4352-56"
         style="color:#000000;fill:#ffffff;fill-opacity:1;fill-rule:nonzero;stroke:none;stroke-width:8;marker:none;visibility:visible;display:inline;overflow:visible;enable-background:accumulate"
         sodipodi:type="arc" />
    </g>
  </g>
</svg>
