<?xml version="1.0" encoding="UTF-8" standalone="no"?>
<!-- Created with Inkscape (http://www.inkscape.org/) -->

<svg
   xmlns:dc="http://purl.org/dc/elements/1.1/"
   xmlns:cc="http://creativecommons.org/ns#"
   xmlns:rdf="http://www.w3.org/1999/02/22-rdf-syntax-ns#"
   xmlns:svg="http://www.w3.org/2000/svg"
   xmlns="http://www.w3.org/2000/svg"
   xmlns:sodipodi="http://sodipodi.sourceforge.net/DTD/sodipodi-0.dtd"
   xmlns:inkscape="http://www.inkscape.org/namespaces/inkscape"
   width="1910.0974"
   height="1913.4454"
   id="svg3086"
   version="1.1"
   inkscape:version="0.48.5 r10040"
   sodipodi:docname="Logo_Intel_MQ_white.svg"
   inkscape:export-filename="/home/dustin/Workspace/2auto/src/intelmq-fody/static/img/Logo_Intel_MQ_white_50_50.png"
   inkscape:export-xdpi="2.3800001"
   inkscape:export-ydpi="2.3800001">
  <defs
     id="defs3088" />
  <sodipodi:namedview
     id="base"
     pagecolor="#00ffff"
     bordercolor="#666666"
     borderopacity="1.0"
     inkscape:pageopacity="1"
     inkscape:pageshadow="2"
     inkscape:zoom="0.24748737"
     inkscape:cx="1757.0657"
     inkscape:cy="866.69226"
     inkscape:document-units="px"
     inkscape:current-layer="g4164"
     showgrid="false"
     fit-margin-top="10"
     fit-margin-left="10"
     fit-margin-right="10"
     fit-margin-bottom="10"
     inkscape:window-width="1680"
     inkscape:window-height="1030"
     inkscape:window-x="1678"
     inkscape:window-y="-3"
     inkscape:window-maximized="1" />
  <metadata
     id="metadata3091">
    <rdf:RDF>
      <cc:Work
         rdf:about="">
        <dc:format>image/svg+xml</dc:format>
        <dc:type
           rdf:resource="http://purl.org/dc/dcmitype/StillImage" />
        <dc:title></dc:title>
      </cc:Work>
    </rdf:RDF>
  </metadata>
  <g
     inkscape:label="Ebene 1"
     inkscape:groupmode="layer"
     id="layer1"
     transform="translate(1173.8994,322.20812)">
    <g
       transform="translate(-1433.7438,-517.03571)"
       id="g3048"
       style="fill:#ffffff;stroke:#ffffff;display:inline">
      <g
         id="g4164"
         transform="translate(-539.51584,-1.2734008e-6)">
        <g
           id="g4432">
          <rect
             style="color:#000000;fill:none;stroke:#ffffff;stroke-width:40;stroke-linecap:square;stroke-linejoin:round;stroke-miterlimit:4;stroke-opacity:1;stroke-dasharray:none;stroke-dashoffset:0;marker:none;visibility:visible;display:inline;overflow:visible;enable-background:accumulate"
             id="rect4876"
             width="428.96173"
             height="430.38184"
             x="1540.5094"
             y="936.12152"
             rx="174.84785"
             ry="174.84785" />
          <path
             style="fill:none;stroke:#ffffff;stroke-width:40;stroke-linecap:butt;stroke-linejoin:miter;stroke-miterlimit:4;stroke-opacity:1;stroke-dasharray:none;display:inline"
             d="m 1201.8182,1111.0851 c 0,-230.78735 179.0311,-513.47729 516.774,-513.47729"
             id="path4844"
             inkscape:connector-curvature="0"
             sodipodi:nodetypes="cc" />
          <path
             style="fill:none;stroke:#ffffff;stroke-width:40;stroke-linecap:butt;stroke-linejoin:round;stroke-miterlimit:4;stroke-opacity:1;stroke-dasharray:none;display:inline"
             d="m 2307.8952,1752.3284 c 0,-84.635 -74.25,-167.1027 -167.4173,-170.5743 l -217.51,0 c -27.4347,0 -69.461,-11.9216 -104.6289,-40.8953 -35.1679,-28.9736 -63.4772,-74.3455 -63.4772,-139.2843 -0.3617,-83.378 -0.1553,-166.7708 -0.1553,-250.1533"
             id="path4842"
             inkscape:connector-curvature="0"
             sodipodi:nodetypes="cccscc" />
          <path
             style="fill:none;stroke:#ffffff;stroke-width:40;stroke-linecap:butt;stroke-linejoin:miter;stroke-miterlimit:4;stroke-opacity:1;stroke-dasharray:none;display:inline"
             d="m 869.70148,1150.9889 c 99.8419,0 214.87922,0 335.53502,0"
             id="path4492-7-4"
             inkscape:connector-curvature="0"
             sodipodi:nodetypes="cc" />
          <path
             style="fill:none;stroke:#ffffff;stroke-width:40;stroke-linecap:butt;stroke-linejoin:miter;stroke-miterlimit:4;stroke-opacity:1;stroke-dasharray:none;display:inline"
             d="m 1201.8813,1150.9889 c 99.8419,0 214.8794,0 335.5352,0"
             id="path4492-7"
             inkscape:connector-curvature="0"
             sodipodi:nodetypes="cc" />
          <path
             style="fill:none;stroke:#ffffff;stroke-width:32;stroke-linecap:butt;stroke-linejoin:miter;stroke-miterlimit:4;stroke-opacity:1;stroke-dasharray:none;display:inline"
             d="m 1523.9951,1150.9889 c 144.5481,0 297.732,0 442.9065,0"
             id="path4492-5"
             inkscape:connector-curvature="0"
             sodipodi:nodetypes="cc" />
          <path
             style="fill:none;stroke:#ffffff;stroke-width:40;stroke-linecap:butt;stroke-linejoin:miter;stroke-miterlimit:4;stroke-opacity:1;stroke-dasharray:none;display:inline"
             d="m 1965.2239,1154.2268 c 121.8291,0 238.0675,0 338.8905,0"
             id="path4492-2"
             inkscape:connector-curvature="0"
             sodipodi:nodetypes="cc" />
          <path
             style="fill:none;stroke:#ffffff;stroke-width:40;stroke-linecap:butt;stroke-linejoin:miter;stroke-miterlimit:4;stroke-opacity:1;stroke-dasharray:none;display:inline"
             d="m 2300.7591,1154.2268 344.7111,0"
             id="path4492-54"
             inkscape:connector-curvature="0"
             sodipodi:nodetypes="cc" />
          <path
             style="fill:#ff0000;stroke:#ffffff;stroke-width:40;stroke-linecap:butt;stroke-linejoin:miter;stroke-miterlimit:4;stroke-opacity:1;stroke-dasharray:none;display:inline"
             d="m 1754.695,1145.7312 0,-215.47788"
             id="path4494-4"
             inkscape:connector-curvature="0"
             sodipodi:nodetypes="cc" />
          <path
             style="fill:#ff0000;stroke:#ffffff;stroke-width:32;stroke-linecap:butt;stroke-linejoin:miter;stroke-miterlimit:4;stroke-opacity:1;stroke-dasharray:none;display:inline"
             d="m 1754.695,920.09959 0,-319.00822"
             id="path4494-3"
             inkscape:connector-curvature="0"
             sodipodi:nodetypes="cc" />
          <path
             style="fill:#ff0000;stroke:#ffffff;stroke-width:40;stroke-linecap:butt;stroke-linejoin:miter;stroke-miterlimit:4;stroke-opacity:1;stroke-dasharray:none;display:inline"
             d="m 1754.695,592.72284 0,-337.71115"
             id="path4494-9"
             inkscape:connector-curvature="0"
             sodipodi:nodetypes="cc" />
          <path
             style="fill:none;stroke:#ffffff;stroke-width:40;stroke-linecap:butt;stroke-linejoin:miter;stroke-miterlimit:4;stroke-opacity:1;stroke-dasharray:none;display:inline"
             d="m 2306.8449,1111.0851 c 0,-230.78735 -179.031,-513.47729 -516.7739,-513.47729"
             id="path4844-3"
             inkscape:connector-curvature="0"
             sodipodi:nodetypes="cc" />
          <path
             sodipodi:type="arc"
             style="color:#000000;fill:#ffffff;fill-opacity:1;fill-rule:nonzero;stroke:#ffffff;stroke-width:8;stroke-opacity:1;marker:none;visibility:visible;display:inline;overflow:visible;enable-background:accumulate"
             id="path4348"
             sodipodi:cx="2315.9065"
             sodipodi:cy="1803.7494"
             sodipodi:rx="57.786533"
             sodipodi:ry="57.786533"
             d="m 2373.693,1803.7494 c 0,31.9146 -25.8719,57.7865 -57.7865,57.7865 -31.9146,0 -57.7865,-25.8719 -57.7865,-57.7865 0,-31.9146 25.8719,-57.7865 57.7865,-57.7865 31.9146,0 57.7865,25.8719 57.7865,57.7865 z"
             transform="matrix(0.95940739,0,0,0.95940739,86.376447,66.469713)" />
          <path
             sodipodi:type="arc"
             style="color:#000000;fill:#ffffff;fill-opacity:1;fill-rule:nonzero;stroke:#ffffff;stroke-width:8;stroke-opacity:1;marker:none;visibility:visible;display:inline;overflow:visible;enable-background:accumulate"
             id="path4352"
             sodipodi:cx="2301.4099"
             sodipodi:cy="1785.1545"
             sodipodi:rx="17.997429"
             sodipodi:ry="17.997429"
             d="m 2319.4073,1785.1545 c 0,9.9397 -8.0577,17.9975 -17.9974,17.9975 -9.9397,0 -17.9974,-8.0578 -17.9974,-17.9975 0,-9.9397 8.0577,-17.9974 17.9974,-17.9974 9.9397,0 17.9974,8.0577 17.9974,17.9974 z"
             transform="matrix(1.2964824,0,0,1.2964824,-675.73464,-517.33084)" />
          <path
             sodipodi:type="arc"
             style="color:#000000;fill:#ffffff;fill-opacity:1;fill-rule:nonzero;stroke:#ffffff;stroke-width:8;stroke-opacity:1;marker:none;visibility:visible;display:inline;overflow:visible;enable-background:accumulate"
             id="path4348-0"
             sodipodi:cx="2315.9065"
             sodipodi:cy="1803.7494"
             sodipodi:rx="57.786533"
             sodipodi:ry="57.786533"
             d="m 2373.693,1803.7494 c 0,31.9146 -25.8719,57.7865 -57.7865,57.7865 -31.9146,0 -57.7865,-25.8719 -57.7865,-57.7865 0,-31.9146 25.8719,-57.7865 57.7865,-57.7865 31.9146,0 57.7865,25.8719 57.7865,57.7865 z"
             transform="matrix(0.95940739,0,0,0.95940739,-467.0179,-364.38202)" />
          <path
             sodipodi:type="arc"
             style="color:#000000;fill:#ffffff;fill-opacity:1;fill-rule:nonzero;stroke:#ffffff;stroke-width:8;stroke-opacity:1;marker:none;visibility:visible;display:inline;overflow:visible;enable-background:accumulate"
             id="path4352-2"
             sodipodi:cx="2301.4099"
             sodipodi:cy="1785.1545"
             sodipodi:rx="17.997429"
             sodipodi:ry="17.997429"
             d="m 2319.4073,1785.1545 c 0,9.9397 -8.0577,17.9975 -17.9974,17.9975 -9.9397,0 -17.9974,-8.0578 -17.9974,-17.9975 0,-9.9397 8.0577,-17.9974 17.9974,-17.9974 9.9397,0 17.9974,8.0577 17.9974,17.9974 z"
             transform="matrix(1.2964824,0,0,1.2964824,-1229.1289,-948.18256)" />
          <path
             sodipodi:type="arc"
             style="color:#000000;fill:#ffffff;fill-opacity:1;fill-rule:nonzero;stroke:#ffffff;stroke-width:8;stroke-opacity:1;marker:none;visibility:visible;display:inline;overflow:visible;enable-background:accumulate"
             id="path4348-7"
             sodipodi:cx="2315.9065"
             sodipodi:cy="1803.7494"
             sodipodi:rx="57.786533"
             sodipodi:ry="57.786533"
             d="m 2373.693,1803.7494 c 0,31.9146 -25.8719,57.7865 -57.7865,57.7865 -31.9146,0 -57.7865,-25.8719 -57.7865,-57.7865 0,-31.9146 25.8719,-57.7865 57.7865,-57.7865 31.9146,0 57.7865,25.8719 57.7865,57.7865 z"
             transform="matrix(0.95940739,0,0,0.95940739,-467.0179,-579.54157)" />
          <path
             sodipodi:type="arc"
             style="color:#000000;fill:#ffffff;fill-opacity:1;fill-rule:nonzero;stroke:#ffffff;stroke-width:8;stroke-opacity:1;marker:none;visibility:visible;display:inline;overflow:visible;enable-background:accumulate"
             id="path4352-5"
             sodipodi:cx="2301.4099"
             sodipodi:cy="1785.1545"
             sodipodi:rx="17.997429"
             sodipodi:ry="17.997429"
             d="m 2319.4073,1785.1545 c 0,9.9397 -8.0577,17.9975 -17.9974,17.9975 -9.9397,0 -17.9974,-8.0578 -17.9974,-17.9975 0,-9.9397 8.0577,-17.9974 17.9974,-17.9974 9.9397,0 17.9974,8.0577 17.9974,17.9974 z"
             transform="matrix(1.2964824,0,0,1.2964824,-1229.1289,-1163.3423)" />
          <path
             sodipodi:type="arc"
             style="color:#000000;fill:#ffffff;fill-opacity:1;fill-rule:nonzero;stroke:#ffffff;stroke-width:8;stroke-opacity:1;marker:none;visibility:visible;display:inline;overflow:visible;enable-background:accumulate"
             id="path4348-2"
             sodipodi:cx="2315.9065"
             sodipodi:cy="1803.7494"
             sodipodi:rx="57.786533"
             sodipodi:ry="57.786533"
             d="m 2373.693,1803.7494 c 0,31.9146 -25.8719,57.7865 -57.7865,57.7865 -31.9146,0 -57.7865,-25.8719 -57.7865,-57.7865 0,-31.9146 25.8719,-57.7865 57.7865,-57.7865 31.9146,0 57.7865,25.8719 57.7865,57.7865 z"
             transform="matrix(0.95940739,0,0,0.95940739,-467.0179,-794.28456)" />
          <path
             sodipodi:type="arc"
             style="color:#000000;fill:#ffffff;fill-opacity:1;fill-rule:nonzero;stroke:#ffffff;stroke-width:8;stroke-opacity:1;marker:none;visibility:visible;display:inline;overflow:visible;enable-background:accumulate"
             id="path4352-28"
             sodipodi:cx="2301.4099"
             sodipodi:cy="1785.1545"
             sodipodi:rx="17.997429"
             sodipodi:ry="17.997429"
             d="m 2319.4073,1785.1545 c 0,9.9397 -8.0577,17.9975 -17.9974,17.9975 -9.9397,0 -17.9974,-8.0578 -17.9974,-17.9975 0,-9.9397 8.0577,-17.9974 17.9974,-17.9974 9.9397,0 17.9974,8.0577 17.9974,17.9974 z"
             transform="matrix(1.2964824,0,0,1.2964824,-1229.1289,-1378.0852)" />
          <path
             sodipodi:type="arc"
             style="color:#000000;fill:#ffffff;fill-opacity:1;fill-rule:nonzero;stroke:#ffffff;stroke-width:8;stroke-opacity:1;marker:none;visibility:visible;display:inline;overflow:visible;enable-background:accumulate"
             id="path4348-3"
             sodipodi:cx="2315.9065"
             sodipodi:cy="1803.7494"
             sodipodi:rx="57.786533"
             sodipodi:ry="57.786533"
             d="m 2373.693,1803.7494 c 0,31.9146 -25.8719,57.7865 -57.7865,57.7865 -31.9146,0 -57.7865,-25.8719 -57.7865,-57.7865 0,-31.9146 25.8719,-57.7865 57.7865,-57.7865 31.9146,0 57.7865,25.8719 57.7865,57.7865 z"
             transform="matrix(0.95940739,0,0,0.95940739,-252.1787,-579.54157)" />
          <path
             sodipodi:type="arc"
             style="color:#000000;fill:#ffffff;fill-opacity:1;fill-rule:nonzero;stroke:#ffffff;stroke-width:8;stroke-opacity:1;marker:none;visibility:visible;display:inline;overflow:visible;enable-background:accumulate"
             id="path4352-6"
             sodipodi:cx="2301.4099"
             sodipodi:cy="1785.1545"
             sodipodi:rx="17.997429"
             sodipodi:ry="17.997429"
             d="m 2319.4073,1785.1545 c 0,9.9397 -8.0577,17.9975 -17.9974,17.9975 -9.9397,0 -17.9974,-8.0578 -17.9974,-17.9975 0,-9.9397 8.0577,-17.9974 17.9974,-17.9974 9.9397,0 17.9974,8.0577 17.9974,17.9974 z"
             transform="matrix(1.2964824,0,0,1.2964824,-1014.2896,-1163.3423)" />
          <path
             sodipodi:type="arc"
             style="color:#000000;fill:#ffffff;fill-opacity:1;fill-rule:nonzero;stroke:#ffffff;stroke-width:8;stroke-opacity:1;marker:none;visibility:visible;display:inline;overflow:visible;enable-background:accumulate"
             id="path4348-29"
             sodipodi:cx="2315.9065"
             sodipodi:cy="1803.7494"
             sodipodi:rx="57.786533"
             sodipodi:ry="57.786533"
             d="m 2373.693,1803.7494 c 0,31.9146 -25.8719,57.7865 -57.7865,57.7865 -31.9146,0 -57.7865,-25.8719 -57.7865,-57.7865 0,-31.9146 25.8719,-57.7865 57.7865,-57.7865 31.9146,0 57.7865,25.8719 57.7865,57.7865 z"
             transform="matrix(0.95940739,0,0,0.95940739,-682.51574,-579.54157)" />
          <path
             sodipodi:type="arc"
             style="color:#000000;fill:#ffffff;fill-opacity:1;fill-rule:nonzero;stroke:#ffffff;stroke-width:8;stroke-opacity:1;marker:none;visibility:visible;display:inline;overflow:visible;enable-background:accumulate"
             id="path4352-3"
             sodipodi:cx="2301.4099"
             sodipodi:cy="1785.1545"
             sodipodi:rx="17.997429"
             sodipodi:ry="17.997429"
             d="m 2319.4073,1785.1545 c 0,9.9397 -8.0577,17.9975 -17.9974,17.9975 -9.9397,0 -17.9974,-8.0578 -17.9974,-17.9975 0,-9.9397 8.0577,-17.9974 17.9974,-17.9974 9.9397,0 17.9974,8.0577 17.9974,17.9974 z"
             transform="matrix(1.2964824,0,0,1.2964824,-1444.6267,-1163.3423)" />
          <path
             sodipodi:type="arc"
             style="color:#000000;fill:#ffffff;fill-opacity:1;fill-rule:nonzero;stroke:#ffffff;stroke-width:8;stroke-opacity:1;marker:none;visibility:visible;display:inline;overflow:visible;enable-background:accumulate"
             id="path4348-4"
             sodipodi:cx="2315.9065"
             sodipodi:cy="1803.7494"
             sodipodi:rx="57.786533"
             sodipodi:ry="57.786533"
             d="m 2373.693,1803.7494 c 0,31.9146 -25.8719,57.7865 -57.7865,57.7865 -31.9146,0 -57.7865,-25.8719 -57.7865,-57.7865 0,-31.9146 25.8719,-57.7865 57.7865,-57.7865 31.9146,0 57.7865,25.8719 57.7865,57.7865 z"
             transform="matrix(0.95940739,0,0,0.95940739,-1018.0653,-579.54157)" />
          <path
             sodipodi:type="arc"
             style="color:#000000;fill:#ffffff;fill-opacity:1;fill-rule:nonzero;stroke:#ffffff;stroke-width:8;stroke-opacity:1;marker:none;visibility:visible;display:inline;overflow:visible;enable-background:accumulate"
             id="path4352-7"
             sodipodi:cx="2301.4099"
             sodipodi:cy="1785.1545"
             sodipodi:rx="17.997429"
             sodipodi:ry="17.997429"
             d="m 2319.4073,1785.1545 c 0,9.9397 -8.0577,17.9975 -17.9974,17.9975 -9.9397,0 -17.9974,-8.0578 -17.9974,-17.9975 0,-9.9397 8.0577,-17.9974 17.9974,-17.9974 9.9397,0 17.9974,8.0577 17.9974,17.9974 z"
             transform="matrix(1.2964824,0,0,1.2964824,-1780.1763,-1163.3423)" />
          <path
             sodipodi:type="arc"
             style="color:#000000;fill:#ffffff;fill-opacity:1;fill-rule:nonzero;stroke:#ffffff;stroke-width:8;stroke-opacity:1;marker:none;visibility:visible;display:inline;overflow:visible;enable-background:accumulate"
             id="path4348-45"
             sodipodi:cx="2315.9065"
             sodipodi:cy="1803.7494"
             sodipodi:rx="57.786533"
             sodipodi:ry="57.786533"
             d="m 2373.693,1803.7494 c 0,31.9146 -25.8719,57.7865 -57.7865,57.7865 -31.9146,0 -57.7865,-25.8719 -57.7865,-57.7865 0,-31.9146 25.8719,-57.7865 57.7865,-57.7865 31.9146,0 57.7865,25.8719 57.7865,57.7865 z"
             transform="matrix(0.95940739,0,0,0.95940739,-467.018,-1130.4274)" />
          <path
             sodipodi:type="arc"
             style="color:#000000;fill:#ffffff;fill-opacity:1;fill-rule:nonzero;stroke:#ffffff;stroke-width:8;stroke-opacity:1;marker:none;visibility:visible;display:inline;overflow:visible;enable-background:accumulate"
             id="path4352-0"
             sodipodi:cx="2301.4099"
             sodipodi:cy="1785.1545"
             sodipodi:rx="17.997429"
             sodipodi:ry="17.997429"
             d="m 2319.4073,1785.1545 c 0,9.9397 -8.0577,17.9975 -17.9974,17.9975 -9.9397,0 -17.9974,-8.0578 -17.9974,-17.9975 0,-9.9397 8.0577,-17.9974 17.9974,-17.9974 9.9397,0 17.9974,8.0577 17.9974,17.9974 z"
             transform="matrix(1.2964824,0,0,1.2964824,-1229.1289,-1714.228)" />
          <path
             sodipodi:type="arc"
             style="color:#000000;fill:#ffffff;fill-opacity:1;fill-rule:nonzero;stroke:#ffffff;stroke-width:8;stroke-opacity:1;marker:none;visibility:visible;display:inline;overflow:visible;enable-background:accumulate"
             id="path4348-1"
             sodipodi:cx="2315.9065"
             sodipodi:cy="1803.7494"
             sodipodi:rx="57.786533"
             sodipodi:ry="57.786533"
             d="m 2373.693,1803.7494 c 0,31.9146 -25.8719,57.7865 -57.7865,57.7865 -31.9146,0 -57.7865,-25.8719 -57.7865,-57.7865 0,-31.9146 25.8719,-57.7865 57.7865,-57.7865 31.9146,0 57.7865,25.8719 57.7865,57.7865 z"
             transform="matrix(0.95940739,0,0,0.95940739,84.112167,-576.30364)" />
          <path
             sodipodi:type="arc"
             style="color:#000000;fill:#ffffff;fill-opacity:1;fill-rule:nonzero;stroke:#ffffff;stroke-width:8;stroke-opacity:1;marker:none;visibility:visible;display:inline;overflow:visible;enable-background:accumulate"
             id="path4352-06"
             sodipodi:cx="2301.4099"
             sodipodi:cy="1785.1545"
             sodipodi:rx="17.997429"
             sodipodi:ry="17.997429"
             d="m 2319.4073,1785.1545 c 0,9.9397 -8.0577,17.9975 -17.9974,17.9975 -9.9397,0 -17.9974,-8.0578 -17.9974,-17.9975 0,-9.9397 8.0577,-17.9974 17.9974,-17.9974 9.9397,0 17.9974,8.0577 17.9974,17.9974 z"
             transform="matrix(1.2964824,0,0,1.2964824,-677.99884,-1160.1043)" />
          <path
             sodipodi:type="arc"
             style="color:#000000;fill:#ffffff;fill-opacity:1;fill-rule:nonzero;stroke:#ffffff;stroke-width:8;stroke-opacity:1;marker:none;visibility:visible;display:inline;overflow:visible;enable-background:accumulate"
             id="path4348-06"
             sodipodi:cx="2315.9065"
             sodipodi:cy="1803.7494"
             sodipodi:rx="57.786533"
             sodipodi:ry="57.786533"
             d="m 2373.693,1803.7494 c 0,31.9146 -25.8719,57.7865 -57.7865,57.7865 -31.9146,0 -57.7865,-25.8719 -57.7865,-57.7865 0,-31.9146 25.8719,-57.7865 57.7865,-57.7865 31.9146,0 57.7865,25.8719 57.7865,57.7865 z"
             transform="matrix(0.95940739,0,0,0.95940739,418.2867,-576.30364)" />
          <path
             sodipodi:type="arc"
             style="color:#000000;fill:#ffffff;fill-opacity:1;fill-rule:nonzero;stroke:#ffffff;stroke-width:8;stroke-opacity:1;marker:none;visibility:visible;display:inline;overflow:visible;enable-background:accumulate"
             id="path4352-1"
             sodipodi:cx="2301.4099"
             sodipodi:cy="1785.1545"
             sodipodi:rx="17.997429"
             sodipodi:ry="17.997429"
             d="m 2319.4073,1785.1545 c 0,9.9397 -8.0577,17.9975 -17.9974,17.9975 -9.9397,0 -17.9974,-8.0578 -17.9974,-17.9975 0,-9.9397 8.0577,-17.9974 17.9974,-17.9974 9.9397,0 17.9974,8.0577 17.9974,17.9974 z"
             transform="matrix(1.2964824,0,0,1.2964824,-343.8243,-1160.1043)" />
          <path
             sodipodi:type="arc"
             style="color:#000000;fill:#ffffff;fill-opacity:1;fill-rule:nonzero;stroke:#ffffff;stroke-width:8;stroke-opacity:1;marker:none;visibility:visible;display:inline;overflow:visible;enable-background:accumulate"
             id="path4348-5"
             sodipodi:cx="2315.9065"
             sodipodi:cy="1803.7494"
             sodipodi:rx="57.786533"
             sodipodi:ry="57.786533"
             d="m 2373.693,1803.7494 c 0,31.9146 -25.8719,57.7865 -57.7865,57.7865 -31.9146,0 -57.7865,-25.8719 -57.7865,-57.7865 0,-31.9146 25.8719,-57.7865 57.7865,-57.7865 31.9146,0 57.7865,25.8719 57.7865,57.7865 z"
             transform="matrix(0.95940739,0,0,0.95940739,-467.0179,-1466.4301)" />
          <path
             sodipodi:type="arc"
             style="color:#000000;fill:#ffffff;fill-opacity:1;fill-rule:nonzero;stroke:#ffffff;stroke-width:8;stroke-opacity:1;marker:none;visibility:visible;display:inline;overflow:visible;enable-background:accumulate"
             id="path4352-4"
             sodipodi:cx="2301.4099"
             sodipodi:cy="1785.1545"
             sodipodi:rx="17.997429"
             sodipodi:ry="17.997429"
             d="m 2319.4073,1785.1545 c 0,9.9397 -8.0577,17.9975 -17.9974,17.9975 -9.9397,0 -17.9974,-8.0578 -17.9974,-17.9975 0,-9.9397 8.0577,-17.9974 17.9974,-17.9974 9.9397,0 17.9974,8.0577 17.9974,17.9974 z"
             transform="matrix(1.2964824,0,0,1.2964824,-1229.1289,-2050.2307)" />
          <path
             sodipodi:type="arc"
             style="color:#000000;fill:#ffffff;fill-opacity:1;fill-rule:nonzero;stroke:#ffffff;stroke-width:8;stroke-opacity:1;marker:none;visibility:visible;display:inline;overflow:visible;enable-background:accumulate"
             id="path4348-6"
             sodipodi:cx="2315.9065"
             sodipodi:cy="1803.7494"
             sodipodi:rx="57.786533"
             sodipodi:ry="57.786533"
             d="m 2373.693,1803.7494 c 0,31.9146 -25.8719,57.7865 -57.7865,57.7865 -31.9146,0 -57.7865,-25.8719 -57.7865,-57.7865 0,-31.9146 25.8719,-57.7865 57.7865,-57.7865 31.9146,0 57.7865,25.8719 57.7865,57.7865 z"
             transform="matrix(0.95940739,0,0,0.95940739,-1353.2639,-579.54157)" />
          <path
             sodipodi:type="arc"
             style="color:#000000;fill:#ffffff;fill-opacity:1;fill-rule:nonzero;stroke:#ffffff;stroke-width:8.00010872;stroke-miterlimit:4;stroke-opacity:1;stroke-dasharray:none;marker:none;visibility:visible;display:inline;overflow:visible;enable-background:accumulate"
             id="path4352-56"
             sodipodi:cx="2301.4099"
             sodipodi:cy="1785.1545"
             sodipodi:rx="17.997429"
             sodipodi:ry="17.997429"
             d="m 2319.4073,1785.1545 c 0,9.9397 -8.0577,17.9975 -17.9974,17.9975 -9.9397,0 -17.9974,-8.0578 -17.9974,-17.9975 0,-9.9397 8.0577,-17.9974 17.9974,-17.9974 9.9397,0 17.9974,8.0577 17.9974,17.9974 z"
             transform="matrix(1.2964824,0,0,1.2964824,-2115.3749,-1163.3423)" />
        </g>
      </g>
    </g>
  </g>
</svg>
