<?xml version="1.0" encoding="UTF-8" standalone="no"?>
<!-- Created with Inkscape (http://www.inkscape.org/) -->

<svg
   xmlns:dc="http://purl.org/dc/elements/1.1/"
   xmlns:cc="http://creativecommons.org/ns#"
   xmlns:rdf="http://www.w3.org/1999/02/22-rdf-syntax-ns#"
   xmlns:svg="http://www.w3.org/2000/svg"
   xmlns="http://www.w3.org/2000/svg"
   xmlns:sodipodi="http://sodipodi.sourceforge.net/DTD/sodipodi-0.dtd"
   xmlns:inkscape="http://www.inkscape.org/namespaces/inkscape"
   width="1887.9355"
   height="211.01929"
   id="svg3057"
   version="1.1"
   inkscape:version="0.48.5 r10040"
   sodipodi:docname="Sign_IntelMQ.svg"
   inkscape:export-filename="/home/dustin/Workspace/2auto/src/intelmq-fody/static/img/Sign_IntelMQ.png"
   inkscape:export-xdpi="17.060053"
   inkscape:export-ydpi="17.060053">
  <defs
     id="defs3059" />
  <sodipodi:namedview
     id="base"
     pagecolor="#ffffff"
     bordercolor="#666666"
     borderopacity="1.0"
     inkscape:pageopacity="0.0"
     inkscape:pageshadow="2"
     inkscape:zoom="1.979899"
     inkscape:cx="1826.0035"
     inkscape:cy="101.73859"
     inkscape:document-units="px"
     inkscape:current-layer="layer1"
     showgrid="false"
     fit-margin-top="5"
     fit-margin-left="5"
     fit-margin-right="5"
     fit-margin-bottom="5"
     inkscape:window-width="1680"
     inkscape:window-height="1030"
     inkscape:window-x="1678"
     inkscape:window-y="-3"
     inkscape:window-maximized="1" />
  <metadata
     id="metadata3062">
    <rdf:RDF>
      <cc:Work
         rdf:about="">
        <dc:format>image/svg+xml</dc:format>
        <dc:type
           rdf:resource="http://purl.org/dc/dcmitype/StillImage" />
        <dc:title></dc:title>
      </cc:Work>
    </rdf:RDF>
  </metadata>
  <g
     inkscape:label="Ebene 1"
     inkscape:groupmode="layer"
     id="layer1"
     transform="translate(1535.3964,-255.42398)">
    <rect
       style="color:#000000;fill:#00759e;fill-opacity:1;fill-rule:nonzero;stroke:none;stroke-width:8;marker:none;visibility:visible;display:inline;overflow:visible;enable-background:accumulate"
       id="rect3062"
       width="33.475052"
       height="196.9556"
       x="-1530.3964"
       y="260.64957" />
    <path
       style="color:#000000;fill:#00759e;fill-opacity:1;fill-rule:nonzero;stroke:none;stroke-width:8;marker:none;visibility:visible;display:inline;overflow:visible;enable-background:accumulate"
       d="m -1346.2211,260.61148 0,195.9688 33.0937,0 0,-138.4688 97.5625,138.7188 0.2187,-2.3126 0,2.0626 32.4412,0 0,-195.9688 -32.4412,0 0,138.7812 -96.9075,-138.7187 z"
       id="rect3062-3"
       inkscape:connector-curvature="0"
       sodipodi:nodetypes="ccccccccccccc" />
    <path
       style="color:#000000;fill:#00759e;fill-opacity:1;fill-rule:nonzero;stroke:none;stroke-width:8;marker:none;visibility:visible;display:inline;overflow:visible;enable-background:accumulate"
       d="m -1030.7212,260.42398 0,33.4687 48.65635,0 0,163.7188 33.4687,0 0,-163.7188 48.6563,0 0,-33.4687 -130.78135,0 z"
       id="rect3062-5"
       inkscape:connector-curvature="0" />
    <path
       style="color:#000000;fill:#00759e;fill-opacity:1;fill-rule:nonzero;stroke:none;stroke-width:8;marker:none;visibility:visible;display:inline;overflow:visible;enable-background:accumulate"
       d="m -467.97113,260.76768 0,163.0938 0,29.6875 0,3.0937 105.2813,0 0,-32.7812 -72.4375,0 0,-163.0938 -32.8438,0 z"
       id="rect3062-56-2"
       inkscape:connector-curvature="0" />
    <path
       style="color:#000000;fill:#013e56;fill-opacity:1;fill-rule:nonzero;stroke:none;stroke-width:8;marker:none;visibility:visible;display:inline;overflow:visible;enable-background:accumulate"
       d="m -214.18983,260.64268 0,196.4688 42.1638,0 0,-96.9688 47.4612,96.9063 36.231699,0 44.2259,-95.3125 0,95.375 41.9799002,0 0,-196.4688 -41.0662002,0 -63.246299,136.7813 -66.9091,-136.7813 z"
       id="rect3062-56-2-9"
       inkscape:connector-curvature="0"
       sodipodi:nodetypes="cccccccccccccc" />
    <path
       style="color:#000000;fill:#00759e;fill-opacity:1;fill-rule:nonzero;stroke:none;stroke-width:8;marker:none;visibility:visible;display:inline;overflow:visible;enable-background:accumulate"
       d="m -664.99285,342.86978 16.6673,15.8301 -16.6673,15.8301 -85.1983,0 0,-31.6602 z"
       id="rect3062-56-27-0-9"
       inkscape:connector-curvature="0"
       sodipodi:nodetypes="cccccc" />
    <rect
       style="color:#000000;fill:#00759e;fill-opacity:1;fill-rule:nonzero;stroke:none;stroke-width:8;marker:none;visibility:visible;display:inline;overflow:visible;enable-background:accumulate"
       id="rect3062-56-27-0-9-3"
       width="32.248547"
       height="130.25768"
       x="424.7626"
       y="619.14905"
       transform="matrix(0,1,-1,0,0,0)" />
    <rect
       style="color:#000000;fill:#00759e;fill-opacity:1;fill-rule:nonzero;stroke:none;stroke-width:8;marker:none;visibility:visible;display:inline;overflow:visible;enable-background:accumulate"
       id="rect3062-56-27-0-9-3-6"
       width="32.248547"
       height="130.25768"
       x="261.66812"
       y="619.14905"
       transform="matrix(0,1,-1,0,0,0)" />
    <path
       style="color:#000000;fill:#013e56;fill-opacity:1;fill-rule:nonzero;stroke:none;stroke-width:8;marker:none;visibility:visible;display:inline;overflow:visible;enable-background:accumulate"
       d="M 1782.0938 9.96875 C 1728.9341 9.96875 1685.8438 53.090374 1685.8438 106.25 C 1685.8438 159.40963 1728.9341 202.5 1782.0938 202.5 C 1835.2534 202.5 1878.375 159.40963 1878.375 106.25 C 1878.375 53.090374 1835.2534 9.96875 1782.0938 9.96875 z M 1782.0938 51.0625 C 1812.5666 51.0625 1837.2812 75.777184 1837.2812 106.25 C 1837.2812 136.72282 1812.5666 161.40625 1782.0938 161.40625 C 1751.6209 161.40625 1726.9375 136.72282 1726.9375 106.25 C 1726.9375 75.777184 1751.6209 51.0625 1782.0938 51.0625 z "
       transform="translate(-1535.3964,255.42398)"
       id="path4194" />
    <rect
       style="color:#000000;fill:#013e56;fill-opacity:1;fill-rule:nonzero;stroke:none;stroke-width:8;marker:none;visibility:visible;display:inline;overflow:visible;enable-background:accumulate"
       id="rect3062-56-27-0-9-3-2"
       width="40.69812"
       height="96.445793"
       x="60.193272"
       y="-551.68793"
       transform="matrix(-0.70710678,0.70710678,-0.70710678,-0.70710678,0,0)" />
  </g>
</svg>
